<?xml version="1.0" encoding="UTF-8"?>
<svg xmlns="http://www.w3.org/2000/svg" version="1.1" viewBox="0 0 500 59">
  <defs>
    <style>
      .cls-1 {
        fill: #6c3b55;
      }

      .cls-2 {
        fill: #e6007e;
      }
    </style>
  </defs>
  <!-- Generator: Adobe Illustrator 28.7.1, SVG Export Plug-In . SVG Version: 1.2.0 Build 142)  -->
  <g>
    <g id="Capa_1">
      <g>
        <g>
          <g>
            <path class="cls-1" d="M385.5,14.5c-.3-.3-.7-.6-1.3-.8-.5-.2-1.1-.3-1.7-.3s-1.5.2-2,.5c-.5.4-.7.8-.7,1.3s.2.8.5,1.2c.4.3.8.6,1.3.7l2.8.7c.7.2,1.2.5,1.7,1,.4.5.6,1,.6,1.7s-.4,1.4-1.1,2c-.7.6-1.7.8-3,.8s-1.9-.2-2.7-.6c-.8-.4-1.4-.9-1.8-1.6l.9-.5c.4.6.9,1,1.6,1.3.7.3,1.3.5,2,.5,1,0,1.8-.2,2.3-.6.5-.4.8-.9.8-1.4s-.1-.8-.4-1.1c-.3-.3-.7-.5-1.2-.7l-2.7-.7c-.8-.2-1.4-.6-1.9-1.1-.5-.5-.7-1.1-.7-1.7s.3-1.4,1-1.9c.7-.5,1.6-.8,2.7-.8s1.6.1,2.3.4c.7.3,1.2.7,1.6,1.1l-.9.5Z"/>
            <path class="cls-1" d="M401.5,12.7v.9h-5.9v3.7h4.5v.9h-4.5v3.7h5.9v.9h-6.9v-10.3h6.9Z"/>
            <path class="cls-1" d="M414.4,20.3c-.4.1-.8.2-1.3.2h-2.9v2.5h-1v-10.3h4c1.2,0,2.2.4,3,1.1.8.8,1.3,1.7,1.3,2.7s-.4,2-1.3,2.7c-.3.2-.5.4-.8.6l1.7,3h-1.2l-1.5-2.7ZM413.1,13.7h-2.9v5.9h2.9c.9,0,1.7-.3,2.3-.9.6-.6,1-1.3,1-2.1s-.3-1.5-1-2.1c-.6-.6-1.4-.9-2.3-.9Z"/>
            <path class="cls-1" d="M434.2,21l.8.6s0,0,0,0c-1.2,1.1-2.6,1.6-4.3,1.6s-3.1-.5-4.3-1.6c-1.2-1.1-1.8-2.3-1.8-3.9s.6-2.8,1.8-3.8c1.2-1.1,2.6-1.6,4.3-1.6s3.1.5,4.3,1.6c0,0,0,0,.1.1l-.7.6s0,0-.1,0c-1-.9-2.1-1.3-3.5-1.3s-2.6.4-3.5,1.3c-1,.9-1.5,1.9-1.5,3.2s.5,2.3,1.5,3.2c1,.9,2.2,1.3,3.5,1.3s2.6-.4,3.5-1.3c0,0,0,0,0,0Z"/>
            <path class="cls-1" d="M469.3,12.7l-4.1,10.3h-.8l-4.1-10.3h1.1l3.4,8.5,3.4-8.5h1.1Z"/>
            <path class="cls-1" d="M484.5,21.4h-7.6l-.8,1.6h-1.1l5.3-10.3h.9l5.3,10.3h-1.2l-.8-1.6ZM484,20.5l-3.3-6.4-3.3,6.4h6.6Z"/>
            <path class="cls-1" d="M493.5,12.7h1v9.3h5.5v.9h-6.5v-10.3Z"/>
          </g>
          <path class="cls-2" d="M449.2,23.5c-3.9,0-8.3-5-8.4-5.2l-.4-.5.4-.5c.2-.2,4.6-5.2,8.4-5.2s5.7,2.5,5.7,5.7-2.5,5.7-5.7,5.7ZM442.2,17.9c1.1,1.2,4.3,4.2,7,4.2s4.3-1.9,4.3-4.3-1.9-4.3-4.3-4.3-5.8,3.1-7,4.3Z"/>
        </g>
        <g>
          <g>
            <path class="cls-1" d="M7.3,48.4v1H1.1v3.8h4.7v1H1.1v3.8h6.2v1H0v-10.6h7.3Z"/>
            <path class="cls-1" d="M34.3,48.4v1h-6.2v3.8h4.7v1h-4.7v3.8h6.2v1h-7.3v-10.6h7.3Z"/>
            <path class="cls-1" d="M42.4,48.4h1.1v9.6h5.8v1h-6.9v-10.6Z"/>
            <path class="cls-1" d="M57.3,48.4v10.6h-1.1v-10.6h1.1Z"/>
            <path class="cls-1" d="M74.9,57.4h-8.1l-.8,1.6h-1.2l5.6-10.6h.9l5.6,10.6h-1.2l-.8-1.6ZM74.4,56.4l-3.5-6.6-3.5,6.6h7Z"/>
            <path class="cls-1" d="M84.4,48.4h.8l7.6,8.7v-8.7h1.1v10.6h-.8l-7.6-8.7v8.7h-1.1v-10.6Z"/>
          </g>
          <path class="cls-2" d="M25.5,40.4c-5.6,5.3-9,13.4-10.2,16.5l-2.8-5.9h-1.2l3.6,7.6c0,.2.3.3.5.3s0,0,0,0c.2,0,.4-.2.5-.4,0-.1,4-11.9,11.2-18.2h-1.7Z"/>
        </g>
        <g>
          <g>
            <path class="cls-1" d="M371.1,55.7l-4.3-5.3v8.2h-1v-9.9h.9l5,6,5-6h.9v9.9h-1v-8.2l-4.3,5.3h-.9Z"/>
            <path class="cls-1" d="M393.9,57.1h-7.6l-.8,1.5h-1.1l5.3-9.9h.9l5.3,9.9h-1.2l-.8-1.5ZM393.4,56.2l-3.3-6.2-3.3,6.2h6.6Z"/>
            <path class="cls-1" d="M405.7,58.6v-3.6l-4.2-6.3h1.2l3.5,5.3,3.5-5.3h1.2l-4.2,6.3v3.6h-1Z"/>
            <path class="cls-1" d="M442,56c-.4.1-.8.2-1.3.2h-2.9v2.4h-1v-9.9h4c1.2,0,2.2.4,3,1.1.8.7,1.3,1.6,1.3,2.7s-.4,1.9-1.2,2.7c-.3.2-.5.4-.8.6l1.7,3h-1.2l-1.5-2.6ZM440.7,49.5h-2.9v5.7h2.9c.9,0,1.7-.3,2.3-.8.6-.6,1-1.2,1-2s-.3-1.5-1-2c-.6-.6-1.4-.8-2.3-.8Z"/>
            <path class="cls-1" d="M461.1,57.1h-7.6l-.8,1.5h-1.1l5.3-9.9h.9l5.3,9.9h-1.2l-.8-1.5ZM460.6,56.2l-3.3-6.2-3.3,6.2h6.6Z"/>
            <path class="cls-1" d="M470,48.6h1v9h5.5v.9h-6.5v-9.9Z"/>
            <path class="cls-1" d="M484,48.6v9.9h-1v-9.9h1Z"/>
            <path class="cls-1" d="M498.6,50.3c-.3-.3-.7-.6-1.2-.8-.5-.2-1.1-.3-1.7-.3s-1.5.2-1.9.5c-.5.4-.7.8-.7,1.2s.2.8.5,1.1c.4.3.8.6,1.3.7l2.8.7c.7.2,1.2.5,1.7.9.4.4.6,1,.6,1.7s-.4,1.4-1.1,1.9c-.7.5-1.7.8-3,.8s-1.9-.2-2.7-.6c-.8-.4-1.4-.9-1.8-1.5l.9-.5c.4.5.9,1,1.6,1.3.7.3,1.3.4,2,.4,1,0,1.8-.2,2.3-.6.5-.4.8-.8.8-1.3s-.1-.8-.4-1.1c-.3-.3-.7-.5-1.2-.6l-2.6-.7c-.8-.2-1.4-.6-1.9-1-.5-.5-.7-1-.7-1.7s.3-1.3,1-1.9c.7-.5,1.6-.8,2.7-.8s1.6.1,2.3.4c.7.3,1.2.6,1.6,1l-.9.5Z"/>
            <path class="cls-2" d="M428.4,53.5c0,1.5-.5,2.8-1.6,3.9-1.1,1.1-2.4,1.6-3.9,1.6s-2.8-.5-3.9-1.6c-1.1-1.1-1.6-2.4-1.6-3.9s.5-2.8,1.6-3.9c1.1-1.1,2.4-1.6,3.9-1.6s2.8.5,3.9,1.6c1.1,1.1,1.6,2.3,1.6,3.9ZM422.9,49c-1.3,0-2.4.4-3.2,1.3-.9.9-1.3,1.9-1.3,3.2s.4,2.3,1.3,3.2c.9.9,2,1.3,3.2,1.3s2.3-.4,3.2-1.3c.9-.9,1.3-1.9,1.3-3.2s-.4-2.3-1.3-3.2c-.9-.9-2-1.3-3.2-1.3Z"/>
          </g>
          <path class="cls-2" d="M422.9,58.5l-.3-.3c-.2-.2-2.4-2.1-2.4-3.8h0c0-.7.3-1.4.8-1.9.5-.5,1.2-.8,1.9-.8h0c1.5,0,2.6,1.2,2.7,2.6,0,1.8-2.2,3.8-2.3,3.9l-.3.3ZM421.1,54.4c0,1,1.1,2.3,1.8,2.9.7-.7,1.8-1.9,1.7-2.9,0-1-.8-1.8-1.8-1.8h0c-.5,0-.9.2-1.3.5-.3.3-.5.8-.5,1.3h0Z"/>
        </g>
        <g>
          <path class="cls-1" d="M190.5,12.7h4.1c1.2,0,2.3.4,3.1,1.1.9.8,1.3,1.7,1.3,2.8s-.4,2-1.3,2.8c-.9.8-1.9,1.1-3.1,1.1h-3v2.5h-1.1v-10.3ZM194.6,13.6h-3v5.9h3c.9,0,1.7-.3,2.4-.9.7-.6,1-1.3,1-2.1s-.3-1.5-1-2.1c-.7-.6-1.5-.9-2.4-.9Z"/>
          <path class="cls-1" d="M206.9,12.7h1.1v9.4h5.7v.9h-6.8v-10.3Z"/>
          <path class="cls-1" d="M227.5,12.7v.9h-6.1v3.8h4.6v.9h-4.6v3.8h6.1v.9h-7.1v-10.3h7.1Z"/>
          <path class="cls-1" d="M235.4,12.7h.8l7.4,8.5v-8.5h1.1v10.3h-.8l-7.4-8.5v8.5h-1.1v-10.3Z"/>
          <path class="cls-1" d="M254.2,12.7v10.3h-1.1v-10.3h1.1Z"/>
          <path class="cls-1" d="M284,19.2v-6.6h1.1v6.6c0,.9.3,1.6,1,2.2.7.6,1.5.9,2.5.9s1.8-.3,2.5-.9c.7-.6,1-1.3,1-2.2v-6.6h1.1v6.6c0,1.1-.5,2.1-1.4,2.9-.9.8-2,1.2-3.3,1.2s-2.4-.4-3.3-1.2c-.9-.8-1.4-1.8-1.4-2.9Z"/>
          <path class="cls-1" d="M308.1,14.4c-.3-.3-.7-.6-1.3-.8-.6-.2-1.1-.3-1.8-.3s-1.5.2-2,.6c-.5.4-.8.8-.8,1.3s.2.8.5,1.2c.4.3.8.6,1.4.7l2.9.7c.7.2,1.3.5,1.7,1,.4.5.7,1,.7,1.7s-.4,1.4-1.1,2c-.8.6-1.8.9-3.1.9s-2-.2-2.8-.6c-.8-.4-1.4-.9-1.8-1.6l.9-.5c.4.6.9,1,1.6,1.3.7.3,1.4.5,2,.5,1,0,1.8-.2,2.4-.6.5-.4.8-.9.8-1.4s-.2-.8-.5-1.1c-.3-.3-.7-.5-1.3-.7l-2.8-.7c-.8-.2-1.5-.6-2-1.1-.5-.5-.8-1.1-.8-1.7s.4-1.4,1.1-1.9c.7-.5,1.6-.8,2.8-.8s1.7.1,2.4.4c.7.3,1.2.7,1.7,1.1l-1,.5Z"/>
          <path class="cls-2" d="M274.7,23.5l-1-.5c.8-1.6,2.6-5,2.6-6.4,0-2-1.7-3.7-3.7-3.7s-1.7.3-2.3.8c.6.8,1,1.8,1,2.9s-.3,2-1,3.1l-.8,1.2-.5-.7c-.9-1.3-1.3-2.5-1.3-3.6s.4-2.1,1-2.9c-.6-.5-1.4-.8-2.3-.8-2,0-3.7,1.7-3.7,3.7s.6,2.6,1.2,4.3c.3.7.5,1.4.8,2.1l-1,.3c-.2-.7-.5-1.4-.7-2.1-.7-1.8-1.3-3.5-1.3-4.7,0-2.6,2.2-4.8,4.8-4.8s2.2.4,3.1,1.1c.8-.7,1.9-1.1,3.1-1.1,2.6,0,4.8,2.2,4.8,4.8s-1.4,4.4-2.7,6.9ZM269.5,14.6c-.4.6-.7,1.3-.7,2.1s.2,1.4.7,2.2c.4-.8.7-1.6.7-2.2s-.2-1.5-.7-2.1Z"/>
        </g>
        <g>
          <g>
            <path class="cls-1" d="M221.5,53.5c0,1.5-.6,2.8-1.8,3.9-1.2,1.1-2.6,1.6-4.3,1.6s-3.1-.5-4.3-1.6c-1.2-1.1-1.8-2.4-1.8-3.9s.6-2.8,1.8-3.9c1.2-1.1,2.6-1.6,4.3-1.6s3.1.5,4.3,1.6c1.2,1.1,1.8,2.4,1.8,3.9ZM215.4,49c-1.4,0-2.6.4-3.6,1.3-1,.9-1.5,2-1.5,3.2s.5,2.3,1.5,3.2c1,.9,2.2,1.3,3.6,1.3s2.6-.4,3.5-1.3c1-.9,1.5-2,1.5-3.2s-.5-2.3-1.5-3.2c-1-.9-2.2-1.3-3.5-1.3Z"/>
            <path class="cls-1" d="M238.8,57.3c-1.1,1.1-2.6,1.7-4.4,1.7s-3.1-.5-4.3-1.6c-1.2-1.1-1.8-2.4-1.8-3.9s.6-2.8,1.8-3.9c1.2-1.1,2.6-1.6,4.3-1.6s3.1.5,4.3,1.6c0,0,0,0,.1.1l-.7.7s0,0-.1-.1c-1-.9-2.2-1.3-3.5-1.3s-2.6.4-3.6,1.3c-1,.9-1.5,2-1.5,3.2s.5,2.3,1.5,3.2c1,.9,2.2,1.3,3.6,1.3s2.4-.4,3.3-1.1v-2.9h-3.5v-.9h4.6v4.3Z"/>
            <path class="cls-1" d="M269.4,56c-.4.1-.9.2-1.3.2h-2.9v2.5h-1v-10.3h4c1.2,0,2.2.4,3.1,1.1.8.8,1.3,1.7,1.3,2.8s-.4,2-1.3,2.8c-.3.2-.5.4-.8.6l1.7,3.1h-1.2l-1.5-2.7ZM268.1,49.3h-2.9v6h2.9c.9,0,1.7-.3,2.3-.9.6-.6,1-1.3,1-2.1s-.3-1.5-1-2.1c-.6-.6-1.4-.9-2.3-.9Z"/>
            <path class="cls-1" d="M288.6,57.1h-7.6l-.8,1.6h-1.1l5.3-10.3h.9l5.3,10.3h-1.2l-.8-1.6ZM288.2,56.2l-3.3-6.5-3.3,6.5h6.7Z"/>
          </g>
          <path class="cls-2" d="M252,48.1l-.3-.3-.3.3c-.2.2-4.8,4.3-4.8,7.9s.3,2,.8,2.8h0s1.3,0,1.3,0h0c-.7-.8-1.1-1.8-1.1-2.9s0-.7.1-1c2.7.5,5.4.5,8.1,0,0,.4.1.7.1,1,0,1-.4,2-1.1,2.8h0c0,0,1.3,0,1.3,0h0c.6-.9.8-1.8.8-2.9,0-3.6-4.7-7.7-4.9-7.9ZM255.3,53.9c-2.4.4-5,.4-7.4,0,.9-2,2.8-4,3.7-4.8.8.8,2.8,2.7,3.7,4.8Z"/>
        </g>
        <g>
          <g>
            <path class="cls-2" d="M95.1,23.2v-3.7l-3.7-6.4h1.1l3.1,5.4,3.1-5.4h1.1l-3.7,6.4v3.7h-.9Z"/>
            <path class="cls-2" d="M96.1,23.3h-1.2v-3.7l-3.8-6.6h1.4c0,0,3,5.3,3,5.3l3-5.3h1.4v.2c-.1,0-3.8,6.4-3.8,6.4v3.7ZM95.2,23.1h.7v-3.6l3.6-6.3h-.8l-3.2,5.5v-.2c-.1,0-3.2-5.3-3.2-5.3h-.8l3.6,6.3v3.6Z"/>
          </g>
          <path class="cls-1" d="M1.1,12.9v10.3H0v-10.3h1.1Z"/>
          <path class="cls-1" d="M9.6,12.9h.8l7.4,8.4v-8.4h1.1v10.3h-.8l-7.4-8.4v8.4h-1.1v-10.3Z"/>
          <path class="cls-1" d="M28.4,23.2h-1.1v-10.3h7.1v.9h-6v3.7h4.6v.9h-4.6v4.7Z"/>
          <path class="cls-1" d="M50.4,21.6h-7.8l-.8,1.6h-1.2l5.5-10.3h.9l5.5,10.3h-1.2l-.8-1.6ZM49.9,20.7l-3.4-6.4-3.4,6.4h6.8Z"/>
          <path class="cls-1" d="M59.6,12.9h.8l7.4,8.4v-8.4h1.1v10.3h-.8l-7.4-8.4v8.4h-1.1v-10.3Z"/>
          <path class="cls-1" d="M79.3,13.9h-3.4v-.9h7.8v.9h-3.4v9.4h-1.1v-9.4Z"/>
          <path class="cls-1" d="M113.1,14.7c-.3-.3-.7-.6-1.3-.8-.5-.2-1.1-.3-1.7-.3s-1.5.2-2,.5c-.5.4-.8.8-.8,1.3s.2.8.5,1.2c.4.3.8.6,1.4.7l2.9.7c.7.2,1.3.5,1.7,1,.4.5.7,1,.7,1.7s-.4,1.4-1.1,2c-.7.6-1.8.8-3.1.8s-2-.2-2.8-.6c-.8-.4-1.4-.9-1.8-1.6l.9-.5c.4.6.9,1,1.6,1.3.7.3,1.4.5,2,.5,1,0,1.8-.2,2.3-.6.5-.4.8-.9.8-1.4s-.2-.8-.5-1.1c-.3-.3-.7-.5-1.3-.7l-2.7-.7c-.8-.2-1.4-.6-2-1.1-.5-.5-.8-1.1-.8-1.7s.4-1.4,1.1-1.9c.7-.5,1.6-.8,2.8-.8s1.7.1,2.3.4c.7.3,1.2.7,1.7,1.1l-1,.5Z"/>
          <path class="cls-2" d="M95.4,11.4l-.3-.3c-.1-.1-3-2.6-3-4.9s1.5-3.3,3.3-3.3,3.3,1.5,3.3,3.3-2.9,4.8-3,4.9l-.3.3ZM95.4,3.9c-1.3,0-2.3,1.1-2.3,2.3s1.5,3,2.4,3.9c.9-.8,2.3-2.5,2.3-3.9s-1.1-2.3-2.3-2.3Z"/>
          <path class="cls-2" d="M87,4.9c-1.4,0-2.5-1.1-2.5-2.5s1.1-2.5,2.5-2.5,2.5,1.1,2.5,2.5-1.1,2.5-2.5,2.5ZM87,.9c-.9,0-1.6.7-1.6,1.6s.7,1.6,1.6,1.6,1.6-.7,1.6-1.6-.7-1.6-1.6-1.6Z"/>
          <path class="cls-2" d="M80.3,5.7c-.8,0-1.5-.7-1.5-1.5s.7-1.5,1.5-1.5,1.5.7,1.5,1.5-.7,1.5-1.5,1.5ZM80.3,3.3c-.5,0-.9.4-.9.9s.4.9.9.9.9-.4.9-.9-.4-.9-.9-.9Z"/>
        </g>
      </g>
    </g>
  </g>
</svg>